<svg width="413" height="442" viewBox="0 0 413 442" fill="none" xmlns="http://www.w3.org/2000/svg">
<path fill-rule="evenodd" clip-rule="evenodd" d="M171.84 45.7493C162.227 44.0229 152.999 42.7704 145.742 41.9989L146.65 46.32C148.106 53.248 145.791 60.4296 140.563 65.203L137.5 68L142.096 69.1094C152.874 71.711 156.729 85.0504 149 93L157.183 99.0787L157.48 98.9773L157.481 98.9768C162.649 97.2122 168.67 95.1564 174.965 92.8766C164.45 77.1781 167.879 56.5653 171.84 45.7493ZM143.99 36.6965L144.469 31.8166C156.54 33.0008 175.106 35.6444 192.007 39.7533C200.45 41.8059 208.62 44.2579 215.406 47.1373C221.992 49.9316 228.068 53.4478 231.448 58.0308C233.918 61.3804 234.614 65.1832 233.515 68.9601C232.507 72.4216 230.128 75.4 227.431 77.9014C222.022 82.9163 213.59 87.5834 204.588 91.7303C190.026 98.4382 172.537 104.407 160.45 108.532L160.449 108.532L160.449 108.533L160.449 108.533C157.87 109.413 155.538 110.209 153.532 110.91L117.894 124.404C84.4516 139.787 97.1595 195.747 115.218 215.366L63.048 295.627C34.5108 263.969 -16.9454 182.727 5.52765 111.027C27.8688 39.748 106.704 31.75 143.99 36.6965ZM38.1054 214.872C46.6318 236.317 58.5678 254.642 70.7467 265.684C71.7696 266.612 71.847 268.193 70.9195 269.216C69.9921 270.239 68.4111 270.316 67.3882 269.389C54.4856 257.69 42.1762 238.644 33.4592 216.719C24.7334 194.772 19.5167 169.716 21.0078 145.902C22.5004 122.064 30.7313 99.3458 49.0275 82.3882C67.3173 65.4364 95.3557 54.5279 135.9 53.6832L136.004 58.6821C96.2871 59.5096 69.5642 70.1712 52.4263 86.0553C35.2948 101.934 27.4317 123.317 25.998 146.214C24.5628 169.136 29.5877 193.448 38.1054 214.872ZM141.793 84.1353C141.869 85.5139 140.814 86.6936 139.435 86.7702C115.775 88.0846 98.4795 94.9672 86.4378 105.102C74.4015 115.233 67.4245 128.772 64.6716 143.751C59.145 173.823 70.7047 209.514 92.3371 233.768C93.2561 234.799 93.1658 236.379 92.1354 237.298C91.1049 238.217 89.5246 238.127 88.6056 237.096C66.0945 211.856 53.9103 174.644 59.754 142.847C62.6862 126.893 70.1729 112.257 83.2181 101.277C96.2579 90.3018 114.661 83.1388 139.158 81.7779C140.537 81.7013 141.716 82.7568 141.793 84.1353ZM117.897 228.074C141.753 203.327 225.558 161.464 305.842 207.34C368.042 242.883 380.051 210.166 372.732 189.205C372.4 188.253 373.477 187.334 374.296 187.922C396.51 203.873 429.301 245.192 402.155 298.971C379.392 344.066 346.15 342.555 323.856 341.541C311.431 340.977 302.406 340.566 300.491 348.465C298.843 355.263 300.431 365.106 302.147 375.748C306.004 399.658 310.51 427.597 280.426 434.077C248.251 441.007 243.185 434.016 226.459 410.936L226.459 410.936C220.584 402.83 213.271 392.739 202.84 380.57C194.145 372.989 173.01 369.333 158.028 415.349C154.461 429.618 139.033 453.339 105.858 434.077C97.6091 429.841 81.111 407.992 81.111 354.485C81.1106 343.532 79.3179 333.689 77.7103 324.862C75.2929 311.588 73.2939 300.612 78.4356 291.614C86.9968 276.632 108.311 243.011 117.897 228.074ZM68.1695 308.298C66.7405 301.868 48.9963 346.199 44.7603 364.481C42.9767 371.169 39.8109 388.291 41.4161 403.273C43.0116 418.164 50.1044 419.101 61.0134 420.541C63.824 420.911 66.8879 421.316 70.1763 422.001C86.2285 425.345 82.2151 406.618 80.2086 401.267C78.2021 395.916 73.5202 374.514 74.189 357.793C74.8579 341.072 70.9934 321.006 68.1695 308.298ZM210.818 402.136C199.341 384.74 190.419 380.167 189.008 388.319C184.97 402.093 184.238 409.124 183.136 419.71C182.922 421.768 182.694 423.959 182.424 426.361C179.999 448.001 215.652 440.339 225.284 434.602C231.753 430.749 228.857 426.894 221.385 416.948C218.466 413.061 214.848 408.245 210.818 402.136Z" fill="#4599E8"/>
<g clip-path="url(#paint0_diamond_896_2953_clip_path)" data-figma-skip-parse="true"><g transform="matrix(0.2305 0.1405 -0.124634 0.204471 125 179.5)"><rect x="0" y="0" width="1413.95" height="1205.26" fill="url(#paint0_diamond_896_2953)" opacity="1" shape-rendering="crispEdges"/><rect x="0" y="0" width="1413.95" height="1205.26" transform="scale(1 -1)" fill="url(#paint0_diamond_896_2953)" opacity="1" shape-rendering="crispEdges"/><rect x="0" y="0" width="1413.95" height="1205.26" transform="scale(-1 1)" fill="url(#paint0_diamond_896_2953)" opacity="1" shape-rendering="crispEdges"/><rect x="0" y="0" width="1413.95" height="1205.26" transform="scale(-1)" fill="url(#paint0_diamond_896_2953)" opacity="1" shape-rendering="crispEdges"/></g></g><path fill-rule="evenodd" clip-rule="evenodd" d="M171.84 45.7493C162.227 44.0229 152.999 42.7704 145.742 41.9989L146.65 46.32C148.106 53.248 145.791 60.4296 140.563 65.203L137.5 68L142.096 69.1094C152.874 71.711 156.729 85.0504 149 93L157.183 99.0787L157.48 98.9773L157.481 98.9768C162.649 97.2122 168.67 95.1564 174.965 92.8766C164.45 77.1781 167.879 56.5653 171.84 45.7493ZM143.99 36.6965L144.469 31.8166C156.54 33.0008 175.106 35.6444 192.007 39.7533C200.45 41.8059 208.62 44.2579 215.406 47.1373C221.992 49.9316 228.068 53.4478 231.448 58.0308C233.918 61.3804 234.614 65.1832 233.515 68.9601C232.507 72.4216 230.128 75.4 227.431 77.9014C222.022 82.9163 213.59 87.5834 204.588 91.7303C190.026 98.4382 172.537 104.407 160.45 108.532L160.449 108.532L160.449 108.533L160.449 108.533C157.87 109.413 155.538 110.209 153.532 110.91L117.894 124.404C84.4516 139.787 97.1595 195.747 115.218 215.366L63.048 295.627C34.5108 263.969 -16.9454 182.727 5.52765 111.027C27.8688 39.748 106.704 31.75 143.99 36.6965ZM38.1054 214.872C46.6318 236.317 58.5678 254.642 70.7467 265.684C71.7696 266.612 71.847 268.193 70.9195 269.216C69.9921 270.239 68.4111 270.316 67.3882 269.389C54.4856 257.69 42.1762 238.644 33.4592 216.719C24.7334 194.772 19.5167 169.716 21.0078 145.902C22.5004 122.064 30.7313 99.3458 49.0275 82.3882C67.3173 65.4364 95.3557 54.5279 135.9 53.6832L136.004 58.6821C96.2871 59.5096 69.5642 70.1712 52.4263 86.0553C35.2948 101.934 27.4317 123.317 25.998 146.214C24.5628 169.136 29.5877 193.448 38.1054 214.872ZM141.793 84.1353C141.869 85.5139 140.814 86.6936 139.435 86.7702C115.775 88.0846 98.4795 94.9672 86.4378 105.102C74.4015 115.233 67.4245 128.772 64.6716 143.751C59.145 173.823 70.7047 209.514 92.3371 233.768C93.2561 234.799 93.1658 236.379 92.1354 237.298C91.1049 238.217 89.5246 238.127 88.6056 237.096C66.0945 211.856 53.9103 174.644 59.754 142.847C62.6862 126.893 70.1729 112.257 83.2181 101.277C96.2579 90.3018 114.661 83.1388 139.158 81.7779C140.537 81.7013 141.716 82.7568 141.793 84.1353ZM117.897 228.074C141.753 203.327 225.558 161.464 305.842 207.34C368.042 242.883 380.051 210.166 372.732 189.205C372.4 188.253 373.477 187.334 374.296 187.922C396.51 203.873 429.301 245.192 402.155 298.971C379.392 344.066 346.15 342.555 323.856 341.541C311.431 340.977 302.406 340.566 300.491 348.465C298.843 355.263 300.431 365.106 302.147 375.748C306.004 399.658 310.51 427.597 280.426 434.077C248.251 441.007 243.185 434.016 226.459 410.936L226.459 410.936C220.584 402.83 213.271 392.739 202.84 380.57C194.145 372.989 173.01 369.333 158.028 415.349C154.461 429.618 139.033 453.339 105.858 434.077C97.6091 429.841 81.111 407.992 81.111 354.485C81.1106 343.532 79.3179 333.689 77.7103 324.862C75.2929 311.588 73.2939 300.612 78.4356 291.614C86.9968 276.632 108.311 243.011 117.897 228.074ZM68.1695 308.298C66.7405 301.868 48.9963 346.199 44.7603 364.481C42.9767 371.169 39.8109 388.291 41.4161 403.273C43.0116 418.164 50.1044 419.101 61.0134 420.541C63.824 420.911 66.8879 421.316 70.1763 422.001C86.2285 425.345 82.2151 406.618 80.2086 401.267C78.2021 395.916 73.5202 374.514 74.189 357.793C74.8579 341.072 70.9934 321.006 68.1695 308.298ZM210.818 402.136C199.341 384.74 190.419 380.167 189.008 388.319C184.97 402.093 184.238 409.124 183.136 419.71C182.922 421.768 182.694 423.959 182.424 426.361C179.999 448.001 215.652 440.339 225.284 434.602C231.753 430.749 228.857 426.894 221.385 416.948C218.466 413.061 214.848 408.245 210.818 402.136Z" data-figma-gradient-fill="{&#34;type&#34;:&#34;GRADIENT_DIAMOND&#34;,&#34;stops&#34;:[{&#34;color&#34;:{&#34;r&#34;:0.27058824896812439,&#34;g&#34;:0.60000002384185791,&#34;b&#34;:0.90980392694473267,&#34;a&#34;:0.0},&#34;position&#34;:0.14000000059604645},{&#34;color&#34;:{&#34;r&#34;:0.34697395563125610,&#34;g&#34;:0.24864582717418671,&#34;b&#34;:0.90416663885116577,&#34;a&#34;:1.0},&#34;position&#34;:1.0}],&#34;stopsVar&#34;:[{&#34;color&#34;:{&#34;r&#34;:0.27058824896812439,&#34;g&#34;:0.60000002384185791,&#34;b&#34;:0.90980392694473267,&#34;a&#34;:0.0},&#34;position&#34;:0.14000000059604645},{&#34;color&#34;:{&#34;r&#34;:0.34697395563125610,&#34;g&#34;:0.24864582717418671,&#34;b&#34;:0.90416663885116577,&#34;a&#34;:1.0},&#34;position&#34;:1.0}],&#34;transform&#34;:{&#34;m00&#34;:461.0,&#34;m01&#34;:-249.26832580566406,&#34;m02&#34;:19.134164810180664,&#34;m10&#34;:280.99993896484375,&#34;m11&#34;:408.94210815429688,&#34;m12&#34;:-165.47100830078125},&#34;opacity&#34;:1.0,&#34;blendMode&#34;:&#34;NORMAL&#34;,&#34;visible&#34;:true}"/>
<circle cx="150.28" cy="25.416" r="21.916" fill="white" stroke="#4A84E8" stroke-width="7"/>
<circle cx="158.943" cy="25.4157" r="17.3291" fill="#4A84E8"/>
<circle cx="108.773" cy="47.487" r="29.2732" fill="white" stroke="#4A84E8" stroke-width="7"/>
<circle cx="119.944" cy="47.4867" r="22.3454" fill="#4A84E8"/>
<path fill-rule="evenodd" clip-rule="evenodd" d="M171.84 45.7493C162.227 44.0229 152.999 42.7704 145.742 41.9989L146.65 46.32C148.106 53.248 145.791 60.4296 140.563 65.203L137.5 68L142.096 69.1094C152.874 71.711 156.729 85.0504 149 93L157.183 99.0787L157.48 98.9773L157.481 98.9768C162.649 97.2122 168.67 95.1564 174.965 92.8766C164.45 77.1781 167.879 56.5653 171.84 45.7493ZM143.99 36.6965L144.469 31.8166C156.54 33.0008 175.106 35.6444 192.007 39.7533C200.45 41.8059 208.62 44.2579 215.406 47.1373C221.992 49.9316 228.068 53.4478 231.448 58.0308C233.918 61.3804 234.614 65.1832 233.515 68.9601C232.507 72.4216 230.128 75.4 227.431 77.9014C222.022 82.9163 213.59 87.5834 204.588 91.7303C190.026 98.4382 172.537 104.407 160.45 108.532L160.449 108.532L160.449 108.533L160.449 108.533C157.87 109.413 155.538 110.209 153.532 110.91L117.894 124.404C84.4516 139.787 97.1595 195.747 115.218 215.366L63.048 295.627C34.5108 263.969 -16.9454 182.727 5.52765 111.027C27.8688 39.748 106.704 31.75 143.99 36.6965ZM38.1054 214.872C46.6318 236.317 58.5678 254.642 70.7467 265.684C71.7696 266.612 71.847 268.193 70.9195 269.216C69.9921 270.239 68.4111 270.316 67.3882 269.389C54.4856 257.69 42.1762 238.644 33.4592 216.719C24.7334 194.772 19.5167 169.716 21.0078 145.902C22.5004 122.064 30.7313 99.3458 49.0275 82.3882C67.3173 65.4364 95.3557 54.5279 135.9 53.6832L136.004 58.6821C96.2871 59.5096 69.5642 70.1712 52.4263 86.0553C35.2948 101.934 27.4317 123.317 25.998 146.214C24.5628 169.136 29.5877 193.448 38.1054 214.872ZM141.793 84.1353C141.869 85.5139 140.814 86.6936 139.435 86.7702C115.775 88.0846 98.4795 94.9672 86.4378 105.102C74.4015 115.233 67.4245 128.772 64.6716 143.751C59.145 173.823 70.7047 209.514 92.3371 233.768C93.2561 234.799 93.1658 236.379 92.1354 237.298C91.1049 238.217 89.5246 238.127 88.6056 237.096C66.0945 211.856 53.9103 174.644 59.754 142.847C62.6862 126.893 70.1729 112.257 83.2181 101.277C96.2579 90.3018 114.661 83.1388 139.158 81.7779C140.537 81.7013 141.716 82.7568 141.793 84.1353ZM117.897 228.074C141.753 203.327 225.558 161.464 305.842 207.34C368.042 242.883 380.051 210.166 372.732 189.205C372.4 188.253 373.477 187.334 374.296 187.922C396.51 203.873 429.301 245.192 402.155 298.971C379.392 344.066 346.15 342.555 323.856 341.541C311.431 340.977 302.406 340.566 300.491 348.465C298.843 355.263 300.431 365.106 302.147 375.748C306.004 399.658 310.51 427.597 280.426 434.077C248.251 441.007 243.185 434.016 226.459 410.936L226.459 410.936C220.584 402.83 213.271 392.739 202.84 380.57C194.145 372.989 173.01 369.333 158.028 415.349C154.461 429.618 139.033 453.339 105.858 434.077C97.6091 429.841 81.111 407.992 81.111 354.485C81.1106 343.532 79.3179 333.689 77.7103 324.862C75.2929 311.588 73.2939 300.612 78.4356 291.614C86.9968 276.632 108.311 243.011 117.897 228.074ZM68.1695 308.298C66.7405 301.868 48.9963 346.199 44.7603 364.481C42.9767 371.169 39.8109 388.291 41.4161 403.273C43.0116 418.164 50.1044 419.101 61.0134 420.541C63.824 420.911 66.8879 421.316 70.1763 422.001C86.2285 425.345 82.2151 406.618 80.2086 401.267C78.2021 395.916 73.5202 374.514 74.189 357.793C74.8579 341.072 70.9934 321.006 68.1695 308.298ZM210.818 402.136C199.341 384.74 190.419 380.167 189.008 388.319C184.97 402.093 184.238 409.124 183.136 419.71C182.922 421.768 182.694 423.959 182.424 426.361C179.999 448.001 215.652 440.339 225.284 434.602C231.753 430.749 228.857 426.894 221.385 416.948C218.466 413.061 214.848 408.245 210.818 402.136Z" fill="#4599E8"/>
<g clip-path="url(#paint1_diamond_896_2953_clip_path)" data-figma-skip-parse="true"><g transform="matrix(0.2305 0.1405 -0.124634 0.204471 125 179.5)"><rect x="0" y="0" width="1413.95" height="1205.26" fill="url(#paint1_diamond_896_2953)" opacity="1" shape-rendering="crispEdges"/><rect x="0" y="0" width="1413.95" height="1205.26" transform="scale(1 -1)" fill="url(#paint1_diamond_896_2953)" opacity="1" shape-rendering="crispEdges"/><rect x="0" y="0" width="1413.95" height="1205.26" transform="scale(-1 1)" fill="url(#paint1_diamond_896_2953)" opacity="1" shape-rendering="crispEdges"/><rect x="0" y="0" width="1413.95" height="1205.26" transform="scale(-1)" fill="url(#paint1_diamond_896_2953)" opacity="1" shape-rendering="crispEdges"/></g></g><path fill-rule="evenodd" clip-rule="evenodd" d="M171.84 45.7493C162.227 44.0229 152.999 42.7704 145.742 41.9989L146.65 46.32C148.106 53.248 145.791 60.4296 140.563 65.203L137.5 68L142.096 69.1094C152.874 71.711 156.729 85.0504 149 93L157.183 99.0787L157.48 98.9773L157.481 98.9768C162.649 97.2122 168.67 95.1564 174.965 92.8766C164.45 77.1781 167.879 56.5653 171.84 45.7493ZM143.99 36.6965L144.469 31.8166C156.54 33.0008 175.106 35.6444 192.007 39.7533C200.45 41.8059 208.62 44.2579 215.406 47.1373C221.992 49.9316 228.068 53.4478 231.448 58.0308C233.918 61.3804 234.614 65.1832 233.515 68.9601C232.507 72.4216 230.128 75.4 227.431 77.9014C222.022 82.9163 213.59 87.5834 204.588 91.7303C190.026 98.4382 172.537 104.407 160.45 108.532L160.449 108.532L160.449 108.533L160.449 108.533C157.87 109.413 155.538 110.209 153.532 110.91L117.894 124.404C84.4516 139.787 97.1595 195.747 115.218 215.366L63.048 295.627C34.5108 263.969 -16.9454 182.727 5.52765 111.027C27.8688 39.748 106.704 31.75 143.99 36.6965ZM38.1054 214.872C46.6318 236.317 58.5678 254.642 70.7467 265.684C71.7696 266.612 71.847 268.193 70.9195 269.216C69.9921 270.239 68.4111 270.316 67.3882 269.389C54.4856 257.69 42.1762 238.644 33.4592 216.719C24.7334 194.772 19.5167 169.716 21.0078 145.902C22.5004 122.064 30.7313 99.3458 49.0275 82.3882C67.3173 65.4364 95.3557 54.5279 135.9 53.6832L136.004 58.6821C96.2871 59.5096 69.5642 70.1712 52.4263 86.0553C35.2948 101.934 27.4317 123.317 25.998 146.214C24.5628 169.136 29.5877 193.448 38.1054 214.872ZM141.793 84.1353C141.869 85.5139 140.814 86.6936 139.435 86.7702C115.775 88.0846 98.4795 94.9672 86.4378 105.102C74.4015 115.233 67.4245 128.772 64.6716 143.751C59.145 173.823 70.7047 209.514 92.3371 233.768C93.2561 234.799 93.1658 236.379 92.1354 237.298C91.1049 238.217 89.5246 238.127 88.6056 237.096C66.0945 211.856 53.9103 174.644 59.754 142.847C62.6862 126.893 70.1729 112.257 83.2181 101.277C96.2579 90.3018 114.661 83.1388 139.158 81.7779C140.537 81.7013 141.716 82.7568 141.793 84.1353ZM117.897 228.074C141.753 203.327 225.558 161.464 305.842 207.34C368.042 242.883 380.051 210.166 372.732 189.205C372.4 188.253 373.477 187.334 374.296 187.922C396.51 203.873 429.301 245.192 402.155 298.971C379.392 344.066 346.15 342.555 323.856 341.541C311.431 340.977 302.406 340.566 300.491 348.465C298.843 355.263 300.431 365.106 302.147 375.748C306.004 399.658 310.51 427.597 280.426 434.077C248.251 441.007 243.185 434.016 226.459 410.936L226.459 410.936C220.584 402.83 213.271 392.739 202.84 380.57C194.145 372.989 173.01 369.333 158.028 415.349C154.461 429.618 139.033 453.339 105.858 434.077C97.6091 429.841 81.111 407.992 81.111 354.485C81.1106 343.532 79.3179 333.689 77.7103 324.862C75.2929 311.588 73.2939 300.612 78.4356 291.614C86.9968 276.632 108.311 243.011 117.897 228.074ZM68.1695 308.298C66.7405 301.868 48.9963 346.199 44.7603 364.481C42.9767 371.169 39.8109 388.291 41.4161 403.273C43.0116 418.164 50.1044 419.101 61.0134 420.541C63.824 420.911 66.8879 421.316 70.1763 422.001C86.2285 425.345 82.2151 406.618 80.2086 401.267C78.2021 395.916 73.5202 374.514 74.189 357.793C74.8579 341.072 70.9934 321.006 68.1695 308.298ZM210.818 402.136C199.341 384.74 190.419 380.167 189.008 388.319C184.97 402.093 184.238 409.124 183.136 419.71C182.922 421.768 182.694 423.959 182.424 426.361C179.999 448.001 215.652 440.339 225.284 434.602C231.753 430.749 228.857 426.894 221.385 416.948C218.466 413.061 214.848 408.245 210.818 402.136Z" data-figma-gradient-fill="{&#34;type&#34;:&#34;GRADIENT_DIAMOND&#34;,&#34;stops&#34;:[{&#34;color&#34;:{&#34;r&#34;:0.27058824896812439,&#34;g&#34;:0.60000002384185791,&#34;b&#34;:0.90980392694473267,&#34;a&#34;:0.0},&#34;position&#34;:0.14000000059604645},{&#34;color&#34;:{&#34;r&#34;:0.34697395563125610,&#34;g&#34;:0.24864582717418671,&#34;b&#34;:0.90416663885116577,&#34;a&#34;:1.0},&#34;position&#34;:1.0}],&#34;stopsVar&#34;:[{&#34;color&#34;:{&#34;r&#34;:0.27058824896812439,&#34;g&#34;:0.60000002384185791,&#34;b&#34;:0.90980392694473267,&#34;a&#34;:0.0},&#34;position&#34;:0.14000000059604645},{&#34;color&#34;:{&#34;r&#34;:0.34697395563125610,&#34;g&#34;:0.24864582717418671,&#34;b&#34;:0.90416663885116577,&#34;a&#34;:1.0},&#34;position&#34;:1.0}],&#34;transform&#34;:{&#34;m00&#34;:461.0,&#34;m01&#34;:-249.26832580566406,&#34;m02&#34;:19.134164810180664,&#34;m10&#34;:280.99993896484375,&#34;m11&#34;:408.94210815429688,&#34;m12&#34;:-165.47100830078125},&#34;opacity&#34;:1.0,&#34;blendMode&#34;:&#34;NORMAL&#34;,&#34;visible&#34;:true}"/>
<circle cx="150.28" cy="25.416" r="21.916" fill="white" stroke="#4A84E8" stroke-width="7"/>
<circle cx="158.943" cy="25.4157" r="17.3291" fill="#4A84E8"/>
<circle cx="108.773" cy="47.487" r="29.2732" fill="white" stroke="#4A84E8" stroke-width="7"/>
<circle cx="119.944" cy="47.4867" r="22.3454" fill="#4A84E8"/>
<defs>
<clipPath id="paint0_diamond_896_2953_clip_path"><path fill-rule="evenodd" clip-rule="evenodd" d="M171.84 45.7493C162.227 44.0229 152.999 42.7704 145.742 41.9989L146.65 46.32C148.106 53.248 145.791 60.4296 140.563 65.203L137.5 68L142.096 69.1094C152.874 71.711 156.729 85.0504 149 93L157.183 99.0787L157.48 98.9773L157.481 98.9768C162.649 97.2122 168.67 95.1564 174.965 92.8766C164.45 77.1781 167.879 56.5653 171.84 45.7493ZM143.99 36.6965L144.469 31.8166C156.54 33.0008 175.106 35.6444 192.007 39.7533C200.45 41.8059 208.62 44.2579 215.406 47.1373C221.992 49.9316 228.068 53.4478 231.448 58.0308C233.918 61.3804 234.614 65.1832 233.515 68.9601C232.507 72.4216 230.128 75.4 227.431 77.9014C222.022 82.9163 213.59 87.5834 204.588 91.7303C190.026 98.4382 172.537 104.407 160.45 108.532L160.449 108.532L160.449 108.533L160.449 108.533C157.87 109.413 155.538 110.209 153.532 110.91L117.894 124.404C84.4516 139.787 97.1595 195.747 115.218 215.366L63.048 295.627C34.5108 263.969 -16.9454 182.727 5.52765 111.027C27.8688 39.748 106.704 31.75 143.99 36.6965ZM38.1054 214.872C46.6318 236.317 58.5678 254.642 70.7467 265.684C71.7696 266.612 71.847 268.193 70.9195 269.216C69.9921 270.239 68.4111 270.316 67.3882 269.389C54.4856 257.69 42.1762 238.644 33.4592 216.719C24.7334 194.772 19.5167 169.716 21.0078 145.902C22.5004 122.064 30.7313 99.3458 49.0275 82.3882C67.3173 65.4364 95.3557 54.5279 135.9 53.6832L136.004 58.6821C96.2871 59.5096 69.5642 70.1712 52.4263 86.0553C35.2948 101.934 27.4317 123.317 25.998 146.214C24.5628 169.136 29.5877 193.448 38.1054 214.872ZM141.793 84.1353C141.869 85.5139 140.814 86.6936 139.435 86.7702C115.775 88.0846 98.4795 94.9672 86.4378 105.102C74.4015 115.233 67.4245 128.772 64.6716 143.751C59.145 173.823 70.7047 209.514 92.3371 233.768C93.2561 234.799 93.1658 236.379 92.1354 237.298C91.1049 238.217 89.5246 238.127 88.6056 237.096C66.0945 211.856 53.9103 174.644 59.754 142.847C62.6862 126.893 70.1729 112.257 83.2181 101.277C96.2579 90.3018 114.661 83.1388 139.158 81.7779C140.537 81.7013 141.716 82.7568 141.793 84.1353ZM117.897 228.074C141.753 203.327 225.558 161.464 305.842 207.34C368.042 242.883 380.051 210.166 372.732 189.205C372.4 188.253 373.477 187.334 374.296 187.922C396.51 203.873 429.301 245.192 402.155 298.971C379.392 344.066 346.15 342.555 323.856 341.541C311.431 340.977 302.406 340.566 300.491 348.465C298.843 355.263 300.431 365.106 302.147 375.748C306.004 399.658 310.51 427.597 280.426 434.077C248.251 441.007 243.185 434.016 226.459 410.936L226.459 410.936C220.584 402.83 213.271 392.739 202.84 380.57C194.145 372.989 173.01 369.333 158.028 415.349C154.461 429.618 139.033 453.339 105.858 434.077C97.6091 429.841 81.111 407.992 81.111 354.485C81.1106 343.532 79.3179 333.689 77.7103 324.862C75.2929 311.588 73.2939 300.612 78.4356 291.614C86.9968 276.632 108.311 243.011 117.897 228.074ZM68.1695 308.298C66.7405 301.868 48.9963 346.199 44.7603 364.481C42.9767 371.169 39.8109 388.291 41.4161 403.273C43.0116 418.164 50.1044 419.101 61.0134 420.541C63.824 420.911 66.8879 421.316 70.1763 422.001C86.2285 425.345 82.2151 406.618 80.2086 401.267C78.2021 395.916 73.5202 374.514 74.189 357.793C74.8579 341.072 70.9934 321.006 68.1695 308.298ZM210.818 402.136C199.341 384.74 190.419 380.167 189.008 388.319C184.97 402.093 184.238 409.124 183.136 419.71C182.922 421.768 182.694 423.959 182.424 426.361C179.999 448.001 215.652 440.339 225.284 434.602C231.753 430.749 228.857 426.894 221.385 416.948C218.466 413.061 214.848 408.245 210.818 402.136Z"/></clipPath><clipPath id="paint1_diamond_896_2953_clip_path"><path fill-rule="evenodd" clip-rule="evenodd" d="M171.84 45.7493C162.227 44.0229 152.999 42.7704 145.742 41.9989L146.65 46.32C148.106 53.248 145.791 60.4296 140.563 65.203L137.5 68L142.096 69.1094C152.874 71.711 156.729 85.0504 149 93L157.183 99.0787L157.48 98.9773L157.481 98.9768C162.649 97.2122 168.67 95.1564 174.965 92.8766C164.45 77.1781 167.879 56.5653 171.84 45.7493ZM143.99 36.6965L144.469 31.8166C156.54 33.0008 175.106 35.6444 192.007 39.7533C200.45 41.8059 208.62 44.2579 215.406 47.1373C221.992 49.9316 228.068 53.4478 231.448 58.0308C233.918 61.3804 234.614 65.1832 233.515 68.9601C232.507 72.4216 230.128 75.4 227.431 77.9014C222.022 82.9163 213.59 87.5834 204.588 91.7303C190.026 98.4382 172.537 104.407 160.45 108.532L160.449 108.532L160.449 108.533L160.449 108.533C157.87 109.413 155.538 110.209 153.532 110.91L117.894 124.404C84.4516 139.787 97.1595 195.747 115.218 215.366L63.048 295.627C34.5108 263.969 -16.9454 182.727 5.52765 111.027C27.8688 39.748 106.704 31.75 143.99 36.6965ZM38.1054 214.872C46.6318 236.317 58.5678 254.642 70.7467 265.684C71.7696 266.612 71.847 268.193 70.9195 269.216C69.9921 270.239 68.4111 270.316 67.3882 269.389C54.4856 257.69 42.1762 238.644 33.4592 216.719C24.7334 194.772 19.5167 169.716 21.0078 145.902C22.5004 122.064 30.7313 99.3458 49.0275 82.3882C67.3173 65.4364 95.3557 54.5279 135.9 53.6832L136.004 58.6821C96.2871 59.5096 69.5642 70.1712 52.4263 86.0553C35.2948 101.934 27.4317 123.317 25.998 146.214C24.5628 169.136 29.5877 193.448 38.1054 214.872ZM141.793 84.1353C141.869 85.5139 140.814 86.6936 139.435 86.7702C115.775 88.0846 98.4795 94.9672 86.4378 105.102C74.4015 115.233 67.4245 128.772 64.6716 143.751C59.145 173.823 70.7047 209.514 92.3371 233.768C93.2561 234.799 93.1658 236.379 92.1354 237.298C91.1049 238.217 89.5246 238.127 88.6056 237.096C66.0945 211.856 53.9103 174.644 59.754 142.847C62.6862 126.893 70.1729 112.257 83.2181 101.277C96.2579 90.3018 114.661 83.1388 139.158 81.7779C140.537 81.7013 141.716 82.7568 141.793 84.1353ZM117.897 228.074C141.753 203.327 225.558 161.464 305.842 207.34C368.042 242.883 380.051 210.166 372.732 189.205C372.4 188.253 373.477 187.334 374.296 187.922C396.51 203.873 429.301 245.192 402.155 298.971C379.392 344.066 346.15 342.555 323.856 341.541C311.431 340.977 302.406 340.566 300.491 348.465C298.843 355.263 300.431 365.106 302.147 375.748C306.004 399.658 310.51 427.597 280.426 434.077C248.251 441.007 243.185 434.016 226.459 410.936L226.459 410.936C220.584 402.83 213.271 392.739 202.84 380.57C194.145 372.989 173.01 369.333 158.028 415.349C154.461 429.618 139.033 453.339 105.858 434.077C97.6091 429.841 81.111 407.992 81.111 354.485C81.1106 343.532 79.3179 333.689 77.7103 324.862C75.2929 311.588 73.2939 300.612 78.4356 291.614C86.9968 276.632 108.311 243.011 117.897 228.074ZM68.1695 308.298C66.7405 301.868 48.9963 346.199 44.7603 364.481C42.9767 371.169 39.8109 388.291 41.4161 403.273C43.0116 418.164 50.1044 419.101 61.0134 420.541C63.824 420.911 66.8879 421.316 70.1763 422.001C86.2285 425.345 82.2151 406.618 80.2086 401.267C78.2021 395.916 73.5202 374.514 74.189 357.793C74.8579 341.072 70.9934 321.006 68.1695 308.298ZM210.818 402.136C199.341 384.74 190.419 380.167 189.008 388.319C184.97 402.093 184.238 409.124 183.136 419.71C182.922 421.768 182.694 423.959 182.424 426.361C179.999 448.001 215.652 440.339 225.284 434.602C231.753 430.749 228.857 426.894 221.385 416.948C218.466 413.061 214.848 408.245 210.818 402.136Z"/></clipPath><linearGradient id="paint0_diamond_896_2953" x1="0" y1="0" x2="500" y2="500" gradientUnits="userSpaceOnUse">
<stop offset="0.14" stop-color="#4599E8" stop-opacity="0"/>
<stop offset="1" stop-color="#583FE7"/>
</linearGradient>
<linearGradient id="paint1_diamond_896_2953" x1="0" y1="0" x2="500" y2="500" gradientUnits="userSpaceOnUse">
<stop offset="0.14" stop-color="#4599E8" stop-opacity="0"/>
<stop offset="1" stop-color="#583FE7"/>
</linearGradient>
</defs>
</svg>
